<svg width="12" height="12" viewBox="0 0 12 12" fill="none" xmlns="http://www.w3.org/2000/svg">
<path d="M9.29661 11.6C9.18994 11.6 9.0966 11.5733 9.00327 11.52L6.00327 9.57334L3.00327 11.52C2.8166 11.64 2.5766 11.6267 2.40327 11.5067C2.22994 11.3733 2.14994 11.1467 2.20327 10.9333L3.14994 7.6L0.336604 5.22666C0.176604 5.09333 0.109936 4.86667 0.176603 4.65334C0.243269 4.45334 0.429936 4.30666 0.643269 4.28L4.0166 4.04001L5.5366 0.720003C5.62994 0.533337 5.8166 0.41333 6.0166 0.41333C6.22994 0.41333 6.41661 0.533337 6.49661 0.720003L8.0166 4.04001L11.3899 4.28C11.6033 4.29333 11.7899 4.44 11.8566 4.65334C11.9233 4.85334 11.8566 5.07999 11.6966 5.22666L8.88327 7.6L9.82994 10.9333C9.89661 11.1467 9.8166 11.3733 9.62994 11.5067C9.52327 11.56 9.4166 11.6 9.29661 11.6ZM6.00327 8.4C6.10994 8.4 6.20327 8.42666 6.29661 8.48L8.40327 9.84001L7.74994 7.53333C7.6966 7.33333 7.76327 7.12 7.92327 6.98667L9.98994 5.24001L7.6166 5.06667C7.4166 5.05333 7.25661 4.93333 7.16327 4.75999L6.00327 2.21333L4.84327 4.75999C4.76327 4.93333 4.58994 5.05333 4.38994 5.06667L2.01661 5.24001L4.08327 6.98667C4.24327 7.12 4.30994 7.33333 4.2566 7.53333L3.60327 9.84001L5.70994 8.48C5.80327 8.42666 5.8966 8.4 6.00327 8.4Z" fill="#3858FF"/>
<path d="M6.00327 8.4C6.10994 8.4 6.20327 8.42666 6.29661 8.48L8.40327 9.84001L7.74994 7.53333C7.6966 7.33333 7.76327 7.12 7.92327 6.98667L9.98994 5.24001L7.6166 5.06667C7.4166 5.05333 7.25661 4.93333 7.16327 4.75999L6.00327 2.21333L4.84327 4.75999C4.76327 4.93333 4.58994 5.05333 4.38994 5.06667L2.01661 5.24001L4.08327 6.98667C4.24327 7.12 4.30994 7.33333 4.2566 7.53333L3.60327 9.84001L5.70994 8.48C5.80327 8.42666 5.8966 8.4 6.00327 8.4Z" fill="#3858FF"/>
</svg>
