<svg width="16" height="12" viewBox="0 0 16 12" fill="none" xmlns="http://www.w3.org/2000/svg">
<path d="M15.6051 5.99997C15.6051 6.43997 15.2451 6.79997 14.8051 6.79997H3.12509L6.74509 10.44C7.06509 10.76 7.06509 11.26 6.74509 11.58C6.58509 11.74 6.38509 11.82 6.18509 11.82C5.98509 11.82 5.76509 11.74 5.62509 11.58L0.645093 6.57997C0.325093 6.25997 0.325093 5.75997 0.645093 5.45997L5.62509 0.459968C5.94509 0.139968 6.44509 0.139968 6.76509 0.459968C7.08509 0.779968 7.08509 1.27997 6.76509 1.59997L3.12509 5.19997H14.8051C15.2451 5.19997 15.6051 5.55997 15.6051 5.99997Z" fill="white"/>
</svg>
