<svg width="12" height="12" viewBox="0 0 12 12" fill="none" xmlns="http://www.w3.org/2000/svg">
<path d="M9.29664 11.6C9.18997 11.6 9.09663 11.5733 9.0033 11.52L6.0033 9.57334L3.0033 11.52C2.81663 11.64 2.57663 11.6267 2.4033 11.5067C2.22997 11.3733 2.14997 11.1467 2.2033 10.9333L3.14997 7.6L0.336635 5.22666C0.176635 5.09333 0.109967 4.86667 0.176633 4.65334C0.2433 4.45334 0.429967 4.30666 0.6433 4.28L4.01664 4.04001L5.53663 0.720003C5.62997 0.533337 5.81664 0.41333 6.01663 0.41333C6.22997 0.41333 6.41664 0.533337 6.49664 0.720003L8.01663 4.04001L11.39 4.28C11.6033 4.29333 11.79 4.44 11.8566 4.65334C11.9233 4.85334 11.8566 5.07999 11.6966 5.22666L8.8833 7.6L9.82997 10.9333C9.89664 11.1467 9.81664 11.3733 9.62997 11.5067C9.5233 11.56 9.41664 11.6 9.29664 11.6ZM6.0033 8.4C6.10997 8.4 6.2033 8.42666 6.29664 8.48L8.4033 9.84001L7.74997 7.53333C7.69664 7.33333 7.7633 7.12 7.9233 6.98667L9.98997 5.24001L7.61663 5.06667C7.41664 5.05333 7.25664 4.93333 7.1633 4.75999L6.0033 2.21333L4.8433 4.75999C4.7633 4.93333 4.58997 5.05333 4.38997 5.06667L2.01664 5.24001L4.0833 6.98667C4.2433 7.12 4.30997 7.33333 4.25663 7.53333L3.6033 9.84001L5.70997 8.48C5.8033 8.42666 5.89663 8.4 6.0033 8.4Z" fill="#F6F6F8"/>
<path d="M6.0033 8.4C6.10997 8.4 6.2033 8.42666 6.29664 8.48L8.4033 9.84001L7.74997 7.53333C7.69664 7.33333 7.7633 7.12 7.9233 6.98667L9.98997 5.24001L7.61663 5.06667C7.41664 5.05333 7.25664 4.93333 7.1633 4.75999L6.0033 2.21333L4.8433 4.75999C4.7633 4.93333 4.58997 5.05333 4.38997 5.06667L2.01664 5.24001L4.0833 6.98667C4.2433 7.12 4.30997 7.33333 4.25663 7.53333L3.6033 9.84001L5.70997 8.48C5.8033 8.42666 5.89663 8.4 6.0033 8.4Z" fill="#F6F6F8"/>
</svg>
