<svg width="20" height="20" viewBox="0 0 20 20" fill="none" xmlns="http://www.w3.org/2000/svg">
<path d="M10.0051 0.800049C4.92512 0.800049 0.805115 4.92005 0.805115 10C0.805115 15.0801 4.92512 19.2001 10.0051 19.2001C15.0851 19.2001 19.2051 15.0801 19.2051 10C19.2051 4.92005 15.0851 0.800049 10.0051 0.800049ZM10.0051 2.40005C14.2051 2.40005 17.6051 5.80005 17.6051 10C17.6051 11.0601 17.3851 12.08 16.9851 13.02L12.4851 10.8C12.7651 9.90005 12.5451 8.88006 11.8451 8.16006C11.1251 7.44006 10.1051 7.24004 9.20512 7.52004L7.58512 4.24004C7.44512 3.94004 7.08512 3.82006 6.78512 3.96006C6.48512 4.10006 6.36511 4.46006 6.50512 4.76006L8.16512 8.12004C8.16512 8.12004 8.1651 8.12004 8.1451 8.14004L8.12511 8.16006L3.58512 5.90005C4.94512 3.80005 7.30511 2.40005 10.0051 2.40005ZM9.14511 9.14004C9.38511 8.90004 9.68511 8.78005 10.0051 8.78005C10.3251 8.78005 10.6251 8.90004 10.8651 9.14004C11.3451 9.62004 11.3451 10.3801 10.8651 10.8601C10.3851 11.3401 9.6251 11.3401 9.14511 10.8601C8.68511 10.3801 8.68511 9.62004 9.14511 9.14004ZM14.0851 16.4001L13.0451 14.2801C12.9051 13.9801 12.5451 13.8601 12.2451 14C11.9451 14.14 11.8251 14.5 11.9651 14.8L13.0251 16.94C12.1051 17.34 11.0651 17.5801 10.0051 17.5801C5.80511 17.5801 2.40511 14.1801 2.40511 9.98005C2.40511 8.92005 2.62511 7.90006 3.02511 6.96006L7.52511 9.18005C7.24511 10.0801 7.46512 11.1 8.16512 11.82C8.66512 12.32 9.34511 12.5801 10.0051 12.5801C10.6651 12.5801 11.3451 12.32 11.8451 11.82L11.8651 11.8L16.4051 14.0601C15.8251 15.0001 15.0251 15.8 14.0851 16.4001ZM12.3051 12.7001C12.4251 12.8201 12.5051 13 12.5051 13.2001C12.5051 13.38 12.4251 13.5601 12.3051 13.7001C12.1851 13.84 11.9851 13.9001 11.8051 13.9001C11.6251 13.9001 11.4451 13.8201 11.3051 13.7001C11.1651 13.58 11.1051 13.38 11.1051 13.2001C11.1051 13.0201 11.1851 12.84 11.3051 12.7001C11.5651 12.4401 12.0451 12.4401 12.3051 12.7001Z" fill="white"/>
</svg>
